<svg xmlns="http://www.w3.org/2000/svg" viewBox="0 0 600 400" width="600" height="400" role="img" aria-label="Ilustração de fachada de restaurante">
  <rect width="600" height="400" fill="#8e44ad"/>
  <rect width="600" height="400" fill="url(#g3)" opacity="0.35"/>
  <defs>
    <radialGradient id="g3" cx="50%" cy="40%" r="70%">
      <stop offset="0%" stop-color="#ffffff"/>
      <stop offset="100%" stop-color="#000000"/>
    </radialGradient>
  </defs>
  <!-- predio -->
  <rect x="170" y="150" width="260" height="180" fill="#fdf6ec"/>
  <!-- toldo -->
  <path d="M150 150 l300 0 l-20 50 l-260 0 z" fill="#c0392b"/>
  <g fill="#fdf6ec">
    <path d="M150 150 l37.5 0 l-2.5 50 l-37 0 z"/>
    <path d="M225 150 l37.5 0 l-7.5 50 l-37 0 z"/>
    <path d="M300 150 l37.5 0 l-12.5 50 l-37 0 z" fill="#fdf6ec"/>
  </g>
  <!-- porta -->
  <rect x="270" y="240" width="60" height="90" fill="#8e44ad"/>
  <circle cx="320" cy="285" r="4" fill="#f1c40f"/>
  <!-- janelas -->
  <rect x="195" y="230" width="50" height="50" fill="#2980b9"/>
  <rect x="355" y="230" width="50" height="50" fill="#2980b9"/>
  <text x="300" y="375" font-family="Georgia, serif" font-size="32" fill="#ffffff" text-anchor="middle" font-weight="bold">Restaurantes</text>
</svg>
